<?xml version="1.0" encoding="UTF-8"?>
<svg width="162px" height="162px" viewBox="0 0 162 162" version="1.1" xmlns="http://www.w3.org/2000/svg" xmlns:xlink="http://www.w3.org/1999/xlink">
    <title>Artboard</title>
    <g id="Artboard" stroke="none" stroke-width="1" fill="none" fill-rule="evenodd">
        <g id="Group" transform="translate(40.000000, 4.000000)">
            <g id="keyhole" transform="translate(33.000000, 109.000000)" fill="#000000" fill-rule="nonzero">
                <path d="M10.7124844,14.2791075 L15,30 L0,30 L4.28751562,14.2791075 C1.75267687,13.0757719 0,10.4925656 0,7.5 C0,3.35786438 3.35786437,0 7.5,0 C11.6421356,0 15,3.35786438 15,7.5 C15,10.4925656 13.2473231,13.0757719 10.7124844,14.2791075 Z" id="Rectangle-242"></path>
            </g>
            <path d="M0,40.9545455 L0,15 C7.61826213e-16,6.71572875 6.71572875,-2.54560899e-16 15,0 L66,0 C74.2842712,-1.52179594e-15 81,6.71572875 81,15 L81,138 C81,146.284271 74.2842712,153 66,153 L15,153 C6.71572875,153 2.79088747e-15,146.284271 0,138 L0,60.451049 L0,60.451049" id="Path-2" stroke="#000000" stroke-width="10"></path>
        </g>
    </g>
</svg>